<mxfile host="app.diagrams.net" modified="2024-05-15T13:07:50.828Z" agent="Mozilla/5.0 (Windows NT 10.0; Win64; x64) AppleWebKit/537.36 (KHTML, like Gecko) Chrome/124.0.0.0 Safari/537.36" version="24.4.0" etag="KuMGuMoRAfO8Ifx_jfgy" type="github">
  <diagram name="페이지-1" id="WerB6gWVVHjGSycceOM1">
    <mxGraphModel>
      <root>
        <mxCell id="0" />
        <mxCell id="1" parent="0" />
      </root>
    </mxGraphModel>
  </diagram>
</mxfile>
